<svg version="1.2" xmlns="http://www.w3.org/2000/svg" viewBox="0 0 800 716" width="800" height="716"><style>.a{fill:#d91800}.b{fill:#754c24}.c{fill:#fff}</style><path class="a" d="m476.1 465.6l-212.5 220.9-34.9 1c29.1-33.5 137.6-158 194.2-218 14.8-1.2 32.1-5.5 47-16.9q2.9 7 6.2 13zm-440.1 6.7c0 0 54-59.8 107.2-117.3q-1 5.9-2.2 12.6c-1.2 6.6-2.5 13.7-3.9 21.2-1.2 6.6-2.4 13.4-3.7 20.4-1.4 7.7-2.7 15.7-4 23.5-1.2 7.7-2.3 15.8-3.4 24.1-1.1 8-2.1 15.9-3.2 23.8-0.8 6.4-1.9 14.8-3.1 23-2.1 14.5-4.3 28.2-6.3 41.1l-2.3 14.6c-36-44.5-69-84.1-75.1-87zm361.8-3.4l-68.6 76c0.9-7.3 1.8-15.4 2.9-24.1 2.1-18.2 3.7-32.2 4.9-43.9 0.9-8.4 1.7-16.4 2.5-24.1l1.5-14.3c2.1-21.2 3.9-39.7 4.3-44.2q2.6-0.5 5.2-1.2c3.7 19.4 14.5 63 37.9 74.2 0 0 3.5 0.8 9.4 1.6z"/><path fill-rule="evenodd" class="b" d="m442.6 51.3c-2-7.9-4-15.8-5.6-23.7 0.6-0.7 0.9-1.1 0.9-1.1 0 0 11.9 6.2 23.4 12.3 5.5 2.9 10.9 5.8 15.1 8.1-5 5.5-10.6 10.7-16.2 15.7-1 0.9-2 1.8-3.2 2.3-3.5 1.6-7.7-0.2-10.1-3.2-2.4-2.9-3.4-6.7-4.3-10.4zm252.9 132.4l-195.1 177c-16.8-18.3-37.2-7.6-37.2-7.6l-19.3 6.9c10.8-25.6-1.8-35-1.8-35-12.9-12.6-42 2.5-42 2.5q0-3.7-0.2-7.1l111-136.3-10-6-104.2 117.5c-4-18-10.1-25.5-10.1-25.5-8.2-5.2-16.6-8.7-24.4-11l112-146.2-10.8-10.7-126.6 138.5c-1.6-42.2-10.6-59.4-10.6-59.4-5.7-1.8-11.8-2.7-17.8-3.1q0.1-0.1 0.2-0.2c3.1-3.2 6.6-7.2 10.4-11.8 1.9-2.3 3.8-4.8 5.9-7.4q3.1-3.9 6.4-8.1c3.7-4.4 7.7-9 11.7-13.8 4.1-4.8 8.2-9.7 12.4-14.8 4.2-5 8.4-10.1 12.7-15.2 4.3-5.1 8.7-10.2 13.1-15.1 4.3-4.9 8.7-9.7 12.9-14.3 4.3-4.6 8.3-9.2 12-13.5 3.7-4.3 7.1-8.4 10.3-12.2q3.9-4.7 7.3-8.8c2.4 10.9 6.2 21.4 11.6 31.1 1.5 2.9 3.9 5.1 6.8 6.5q4.4 1.1 8.7 2.2c11.2 2.8 23-0.6 30.9-9q0-0.1 0.1-0.1 5.2-5.6 10.3-11.2 0 0.2 0 0.4c0.8 5.3 1.6 10.5 3.4 15.5 1.8 5.4 4.7 10.4 7.6 15.3 1.5 1.4 3.8 3.7 5.3 5.1l0.1 0.1c6.9 3.9 14.9 5.5 22.8 4.6 1.3-0.1 2.4-0.3 3.3-0.4-1.4 0.2 2.2-1.5 3-1.6 2.2-1.5 6.4-4.5 5.5-3.5 7.5-6.5 14.9-14.8 21.6-23.1 0.1 1.8 0.4 3.7 0.7 5.7 0.7 3.8 1.7 8.1 2.9 12.4 1.4 4.4 2.9 8.7 4.8 12.3 1.9 3.6 3.9 6.6 6.3 9.2q0.3 0.3 0.6 0.7c4.8 3.3 9.7 6.3 14.8 9.2q0 0 0.1 0.1c2.5 0.3 4.6 0.1 6.7-0.3 1.9-0.4 3.9-1 6.1-2 0.7-0.3 1.6-0.7 2.4-1.3 1.1-0.8 1.9-1.9 2.8-2.9 2.7-3.1 5.4-6.3 7.8-9.6 1.9-3.2 3.4-6.7 4.5-10.4 4.6 5.9 9.6 11.6 15 16.9 2.4 2.4 4.9 4.8 7.2 7.2 3.2 3.3 6 6.9 8.9 10.4 13.1 16.1 26.2 32.3 38.1 49.3 0.4 0.6 0.8 1.2 1.1 1.9zm-114.7-107.5c-0.2-3.2-0.6-6.2-1-9.1 6.8 3.6 13.8 7 20.8 10.3-0.3 2.8-0.5 5.6-0.5 8.3 0.1 4 0.6 8.9-1.8 13.2-2.1 3.9-6.2 4.7-9.2 2.4-3.1-2.3-5-6.8-6.2-11.4-1.2-4.7-1.7-9.4-2.1-13.7zm135.3 97.2c-12.4-15.9-83-98.9-83-98.9l44.2 12.6 52.3 60.1q16.2 16.6 31.7 33.8 0.1 0.1 0.3 0.3c-1.9-0.3-3.8-0.3-5.7-0.4q-5.8-0.2-11.5-0.8-5.7-0.5-11.4-1.4c-3.8-0.6-7.6-1.4-11.4-2.3-1.4-0.3-2.7-0.7-4.1-1q-0.7-1-1.4-2zm48.6 30.8l-234.3 213c-6.3-16.6-16.1-34.8-21.1-43.6l218.9-177.4c3.2 0.3 6.4 0.7 9.6 1.3q5.5 0.9 11 2.4c3.7 0.9 7.3 2 11 3q2.4 0.7 4.9 1.3zm-255.6-143.6c-0.3-4.2-0.4-8.7-0.5-13.1q1.7 1.1 3.5 2.2c2.1 1.3 4.3 2.5 6.5 3.7 2.2 1.1 4.5 2.2 6.8 3.3 2.3 1 4.6 2.1 6.8 3.2 2.3 1 4.4 2.1 6.4 3.2 1.6 1 3.1 2.1 4.6 3.2-3.8 6.3-8.6 11.9-13.4 17.4-1.3 1.5-2.9 3.2-4.9 3.4-2.6 0.2-4.7-2.1-6.3-4.1-3.8-5-7.6-10.4-8.8-16.6-0.4-1.9-0.5-3.9-0.7-5.8zm-83.8 41.4c-3.8-3.3-6.2-7.3-7.1-11.7l-70.2 80.4 3 16.8zm222.7 84.9l-34.7-50.7c-6.6 10-21.7 15.9-21.7 15.9l25.7 39.2c0 0-32 34.8-63.4 69.7-30.9 34.3-59.5 68.8-60.3 69.9 1.1-1.1 37-36.7 75.6-72.1 39.3-36 78.8-71.9 78.8-71.9z"/><path class="c" d="m563.4 442.4c28.7 35.8 11.5 39.7 11.5 39.7-66.6 24.8-106-66.6-106-66.6 0 0-49.1 9.7-64.4 8.7 0 0-22.7-22.8-38.5-54l-9.3-22.4c0 0-82.4 19-43.2-12.1 0 0 1.2-5.5 0.4-12.4-0.3-3.3-1-6.8-2.6-9.7q-0.6-1.2-1.3-2.5l-0.5 0.2c-0.8-0.8-1.6-1.5-2.7-2 0 0-37.8 0.1-46.7-1.9 0 0 4.9-25.1 14.4-39.4l-6.4-21.4c0 0-65.7-26-77.4-37.1 0 0 15.3-16.1 22.1-21.9 0.6-0.3 1.1-0.7 1.5-1.3 0.9-1 1.5-2.5 1.5-4.6 0-3.6-1.6-8.8-5.7-16.4 0 0-10.3-31-3.6-59.2 0 0 30.9-2.4 74 29.1 1.1 0.8 2.5 1.3 4 1.3 2.1 0 4.5-1 7.2-3.5 0 0 0.5-5.4 1.6-13.4 0.6-4.1 1.4-8.5 2.3-12.6 0.9-4 1.8-7.8 2.8-10.8 2-5.9 4.2-9.1 7-5.7 1.4 1.7 2.9 5 4.3 10.7 0.6 2.9 1 6.6 1.5 11.5 0.2 2.5 0.4 5.3 0.7 8.4 0.3 2.6 0.6 5.3 0.9 7.6-0.7 0.8-1.4 1.6-2.1 2.3-3.6 4.1-7.1 8.1-10.3 12q-3.5 4.5-6.7 8.6-3.2 4.1-6.2 7.7c-3.8 4.4-7.2 8.3-10.1 11.6-18.6-41.2-44.4-15.3-44.4-15.3 25.6 33.5 24.6 73.6 24.6 73.6l10.5 1.3 35.9-13.3 1.3 34.9c-1.1 17 5.1 30.6 5.1 30.6 6.1 4.4 10.9 5.2 10.9 5.2l47.6 4.6c5.8 9.5 8.2 65.1 8.2 65.1 4.9 5.2 13 6.2 13 6.2 10-9.4 34.6-21.9 34.6-21.9 1.1 13.2-6.8 37.5-6.8 37.5 2.2 6.2 13.1 13.1 13.1 13.1 16-1.6 46.6-16.7 46.6-16.7 1.7 13.5 32.3 56 32.3 56 8.5 43.5 34.1 24.9 34.1 24.9 0.8-8.5-1.7-15.2-4.4-19.8l35.7-30c24.6 1.3 41.5 12.1 41.5 12.1-15.1 6.3-40.6 10.7-40.6 10.7-17.2-1.5-12.8 12.7-12.8 12.7zm-262.6-8.3c-1.5 15.9-3.1 34.1-4.7 52.6-1.8 20.7-3.6 38.7-5.2 53.7-2.8 25.9-5.3 46.4-6.2 53.8l-77.6 86c-11-14-35.9-45.7-63.4-80.3l5.4-34.2c1.9-12 4.2-26.1 6.5-41.6q1.8-11.5 3.8-25.1 2.1-13.5 4.5-29.6c1.9-13.1 3.8-24.5 5.7-35.8 2.2-12.2 4.9-26.2 7.8-40.5l1.7-8c4.7-22.7 8.4-40.6 10.4-51.6 3.4-18.8 5.1-29.7 5.7-33.9 12.2-12.8 23.1-24 31.6-32.5q7.9 2 16.8 3.6c-6.6 13-11.7 32.3-1.9 53.5 0 0 18 7.6 39.9 10-6.7 12.1-11.6 28.9-4.1 46.7 0 0 8.7 9.7 27.2 14-1 10-2.4 23.7-3.9 39.2zm-153.4 63.1q-2 13.5-3.8 25.1c-2.3 15.4-4.6 29.5-6.5 41.5l-3.7 23.3c-4-5-8-10.1-12-15.1l4-25.4c2-12.9 4.2-26.7 6.4-41.3 1.2-8.2 2.3-16.7 3.1-23.2 1-7.8 2-15.7 3.1-23.7 1.1-8.2 2.3-16.2 3.4-23.8 1.3-7.8 2.6-15.6 4-23.2 1.2-7 2.5-13.8 3.7-20.3 1.4-7.6 2.7-14.8 3.9-21.3 2.3-13.1 4.1-23.9 5.3-31.1 7.6-8 14.9-15.9 22.1-23.5q-1.2 6.8-2.9 16.1c-2 10.9-5.6 28.8-10.3 51.4l-1.7 7.9c-3 14.4-5.7 28.5-7.8 40.9-2 11.4-3.9 22.9-5.9 36.1q-2.3 16.1-4.4 29.6zm185.5-100.8c-0.7 7.2-2.2 23.1-4 40.9l-1.5 14.3c-0.8 7.6-1.6 15.7-2.5 24-1.2 11.7-2.8 25.6-4.9 43.8-2 16.6-3.7 31.1-5 41.1l-16.2 18c1.2-9.8 2.7-22.5 4.2-36.8 1.6-15 3.4-33.2 5.2-53.9 1.6-18.5 3.2-36.7 4.7-52.6 1.5-15.2 2.9-28.6 3.9-38.5 4.9 0.4 10.3 0.3 16.1-0.3z"/><path fill-rule="evenodd" d="m794.6 220.2l-45.1 40.9-148.7 124.5c13.2 0.6 30.9 2.9 39.4 10.9 0 0 18.7 23.9 0.2 40.8 0 0-16 17.5-41.5 21.7 10.4 13.1 23 37.7-8.9 56.3 0 0-55.5 19-96.5-25.1l-196.6 202.8c-2.5 16.3-11.1 20.3-11.1 20.3l-63.1-0.6c-12.4 3.5-21.4 3.3-21.4 3.3l-57-75.9c-42-41.7-88.3-115.1-88.3-115.1-39.5-28.4-56-65.9-56-65.9 26.4-39.8 149.5-163.7 191.3-205.3-39.4-20.7-45.8-49.4-45.8-49.4 13.1-16.6 30.4-28 40.2-33.7-25.7-68.3 0.3-97.8 0.3-97.8 37.1-1.8 72.6 16.9 88.6 26.9 3.6-11 6.9-19.6 10.2-25.9 4-7.7 7.7-12.3 11.2-14.5 3.5-2.2 6.8-2.1 9.7-0.2 3 1.9 5.8 5.4 8.2 9.9 1.5 2.5 2.8 5.4 4.2 8.3 1.4 3 2.7 6.1 4 9.2 1.2 3.1 2.3 6.3 3.2 9.5 1.3 4.5 2.3 9 2.9 13.1 0 0.3 0 0.6 0.1 0.9q2.1-2.7 4.3-5.5c3.7-4.6 7.4-9.3 11.1-14 3.8-4.6 7.6-9.2 11.5-13.7 3.9-4.4 7.8-8.8 11.6-13.1 7.7-8.5 14.8-16.7 21.1-24.4 6.3-7.6 11.9-14.6 16.8-20.5 9.8-11.7 16.2-18.9 16.2-18.9 0 0 4.6 2.5 11.5 6.2 7 3.7 16.3 8.6 25.5 13.5 9.2 4.9 18.2 9.7 24.9 13.3 1 0.5 1.9 1 2.8 1.5 1.4-2.3 2.6-4.7 3.6-7.2 0.4-0.9 0.8-2 1.5-2.7 0.8-0.8 1.8-1.3 2.8-1.6q0.4-0.2 0.8-0.3c1.2 0.7 2.5 1.4 3.7 2 3.5 0.8 6.8 2.1 10.1 3.8 2 1.1 4.1 2.2 6.2 3.5q0.3 0.2 0.6 0.4 0.1 0 0.1 0c0.9 0.4 4.9 3.4 6.3 4.4q2.8 1.8 5.7 3.7c1.9 1.2 3.8 2.5 5.8 3.7q2.9 1.9 5.9 3.6c2.1 1.2 4.1 2.3 6.1 3.5 1.4 0.8 2.8 1.7 4.2 2.6 1.8-3.9 3.9-7.5 7.9-8.6 2.4-0.7 4.8-0.2 7.1 0.8q0.1-0.2 0.2-0.4c12.2 7.6 24.9 14.4 38 20.3q0.8-4.3 1.7-8.3c0.3-1.5 0.7-3.1 1.6-4.2 1.2-1.4 3.1-2 4.9-2.3 5-0.8 10.3-0.3 15.1 1.4q1.4-0.1 2.7 0c2.7 0.3 5.2 1.7 7.6 2.9 6.5 3.2 13.2 5.7 20.2 7.4 6.3 1.6 12.8 2.6 18.7 5.3 6.4 2.9 11.7 7.7 16.9 12.4q20.4 18.5 40.7 36.9c5 4.5 9.9 9 14.7 13.7 14.5 14 27.5 29.6 39.8 45.6 4 5.1 8 10.4 10.4 16.4 7.5 12.4-2.6 27-2.6 27zm-161.5-145.7c0 0 70.6 83 83 98.9q0.7 1 1.4 2c1.4 0.3 2.7 0.7 4.1 1 3.8 0.9 7.6 1.7 11.4 2.3q5.7 0.9 11.4 1.4 5.7 0.6 11.5 0.8c1.9 0.1 3.8 0.1 5.7 0.4q-0.2-0.2-0.3-0.3-15.5-17.2-31.7-33.8l-52.3-60.1zm-324.5 103.5q-0.1 0.1-0.2 0.2c6 0.4 12.1 1.3 17.8 3.1 0 0 9 17.2 10.6 59.3l126.6-138.4 10.8 10.7-112 146.2c7.8 2.2 16.2 5.7 24.4 11 0 0 6.1 7.5 10.1 25.5l104.2-117.6 10 6.1-111 136.3q0.2 3.4 0.2 7.1c0 0 29.1-15.1 42-2.5 0 0 12.6 9.3 1.8 35l19.3-6.9c0 0 20.4-10.7 37.2 7.6l195.1-177c-0.3-0.7-0.7-1.3-1.1-1.9-11.9-17.1-25-33.2-38.1-49.3-2.9-3.5-5.7-7.1-8.9-10.4-2.3-2.5-4.8-4.8-7.2-7.2-5.4-5.3-10.4-11-15-17-1.1 3.8-2.6 7.3-4.5 10.5-2.4 3.3-5.1 6.4-7.8 9.6-0.9 1-1.7 2.1-2.8 2.8-0.8 0.7-1.7 1-2.4 1.3-2.2 1-4.2 1.7-6.1 2.1-2.1 0.4-4.2 0.5-6.7 0.2q-0.1 0-0.1 0c-5.1-2.9-10-5.9-14.8-9.2q-0.3-0.4-0.6-0.8c-2.4-2.5-4.4-5.5-6.3-9.1-1.9-3.6-3.4-7.9-4.8-12.3-1.2-4.3-2.2-8.6-2.9-12.5-0.3-2-0.6-3.8-0.7-5.6-6.7 8.3-14.1 16.6-21.6 23.1 0.9-1-3.3 1.9-5.5 3.4-0.8 0.2-4.4 1.9-3 1.7-0.9 0.1-2 0.3-3.3 0.4-7.9 0.9-15.9-0.7-22.8-4.6l-0.1-0.1c-1.5-1.5-3.8-3.7-5.3-5.1-2.9-4.9-5.8-9.9-7.6-15.3-1.8-5-2.6-10.3-3.4-15.5q0-0.2 0-0.5-5.1 5.7-10.3 11.2-0.1 0.1-0.1 0.2c-7.9 8.4-19.7 11.8-30.9 9q-4.3-1.1-8.7-2.2c-2.9-1.4-5.3-3.7-6.8-6.5-5.4-9.7-9.2-20.2-11.6-31.1q-3.4 4-7.3 8.8c-3.2 3.8-6.6 7.9-10.3 12.2-3.7 4.3-7.7 8.8-12 13.5-4.2 4.6-8.6 9.4-12.9 14.3-4.4 4.9-8.8 10-13.1 15.1-4.3 5-8.5 10.2-12.7 15.2-4.2 5.1-8.3 10-12.4 14.8-4 4.8-8 9.3-11.7 13.7q-3.3 4.2-6.4 8.2c-2.1 2.6-4 5.1-5.9 7.4-3.8 4.6-7.3 8.6-10.4 11.8zm200-130.6c0.1 4.5 0.2 8.9 0.5 13.2 0.2 1.9 0.3 3.8 0.7 5.7 1.2 6.2 5 11.6 8.8 16.6 1.6 2.1 3.7 4.4 6.3 4.1 2-0.1 3.6-1.8 4.9-3.3 4.8-5.5 9.6-11.2 13.4-17.4-1.5-1.1-3-2.2-4.6-3.2-2-1.2-4.1-2.2-6.4-3.2-2.2-1.1-4.5-2.2-6.8-3.2-2.3-1.1-4.6-2.2-6.8-3.4-2.2-1.1-4.4-2.3-6.5-3.6q-1.8-1.1-3.5-2.3zm-71.6-19.8c1.6 7.9 3.6 15.8 5.6 23.7 0.9 3.7 1.9 7.5 4.3 10.4 2.4 2.9 6.6 4.7 10.1 3.2 1.2-0.6 2.2-1.5 3.2-2.4 5.6-5 11.2-10.1 16.2-15.7-4.2-2.2-9.6-5.1-15.1-8-11.5-6.1-23.4-12.3-23.4-12.3 0 0-0.3 0.3-0.9 1.1zm142.8 39.5c0.4 2.9 0.8 5.8 1 9.1 0.4 4.3 0.9 8.9 2.1 13.7 1.2 4.6 3.1 9.1 6.2 11.4 3 2.3 7.1 1.4 9.2-2.4 2.4-4.3 1.9-9.2 1.8-13.2 0-2.7 0.2-5.5 0.5-8.3-7-3.3-14-6.7-20.8-10.3zm-460.1 436.4c1.2-8.1 2.3-16.5 3.1-22.9 1.1-7.9 2.1-15.9 3.2-23.8 1.1-8.3 2.2-16.4 3.4-24.1 1.3-7.9 2.6-15.8 4-23.5 1.3-7 2.5-13.9 3.7-20.4 1.4-7.5 2.7-14.7 3.9-21.2q1.2-6.8 2.2-12.6c-53.2 57.5-107.2 117.3-107.2 117.3 6.1 2.9 39.1 42.5 75.1 87l2.3-14.7c2-12.8 4.2-26.5 6.3-41.1zm23.9 18.8q1.8-11.6 3.8-25.1 2.1-13.5 4.4-29.6c2-13.3 3.9-24.7 5.9-36.1 2.1-12.4 4.8-26.5 7.8-40.9l1.7-7.9c4.7-22.7 8.3-40.5 10.3-51.4q1.7-9.3 2.9-16.1c-7.2 7.6-14.5 15.5-22.1 23.5-1.2 7.2-3 17.9-5.3 31.1-1.2 6.5-2.5 13.7-3.9 21.2-1.2 6.5-2.5 13.4-3.7 20.4-1.4 7.6-2.7 15.4-4 23.2-1.1 7.6-2.3 15.6-3.4 23.8-1.1 7.9-2.1 15.9-3.1 23.7-0.8 6.5-1.9 14.9-3.1 23.2-2.2 14.6-4.4 28.4-6.4 41.2l-4 25.5c4 5 8 10.1 12 15.1l3.7-23.3c1.9-12 4.2-26.1 6.5-41.5zm141.1 71.8c0.9-7.3 3.4-27.8 6.2-53.8 1.6-14.9 3.4-32.9 5.2-53.6 1.6-18.5 3.2-36.7 4.7-52.6 1.5-15.6 2.9-29.3 3.9-39.2-18.5-4.3-27.2-14-27.2-14-7.5-17.9-2.6-34.6 4.1-46.7-21.9-2.5-39.9-10-39.9-10-9.8-21.3-4.7-40.5 1.9-53.5q-8.9-1.6-16.8-3.6c-8.5 8.5-19.4 19.7-31.6 32.5-0.6 4.2-2.3 15.1-5.7 33.9-2 11-5.7 28.9-10.4 51.6l-1.7 8c-2.9 14.2-5.6 28.2-7.8 40.5-1.9 11.3-3.8 22.6-5.7 35.8q-2.4 16.1-4.5 29.6-2 13.5-3.8 25.1c-2.3 15.4-4.6 29.5-6.5 41.6l-5.4 34.2c27.5 34.6 52.4 66.2 63.4 80.3zm48.2-197.8c-5.9 0.6-11.3 0.7-16.2 0.4-1 9.8-2.3 23.3-3.8 38.5-1.5 15.9-3.1 34-4.7 52.5-1.9 20.8-3.6 38.9-5.2 53.9-1.6 14.4-3 27.1-4.2 36.8l16.2-17.9c1.2-10.1 3-24.6 5-41.1 2.1-18.2 3.7-32.2 4.9-43.9 0.9-8.3 1.7-16.4 2.5-24l1.4-14.3c1.8-17.8 3.4-33.6 4.1-40.9zm-0.9 124.5c-1 8.7-2 16.8-2.8 24l68.5-76c-5.8-0.7-9.3-1.6-9.3-1.6-23.4-11.2-34.2-54.8-37.9-74.2q-2.7 0.7-5.2 1.3c-0.4 4.4-2.2 22.9-4.4 44.2l-1.4 14.3c-0.8 7.6-1.7 15.7-2.5 24-1.3 11.8-2.8 25.7-5 44zm144.1-55.2q-3.3-6.1-6.3-13.1c-14.9 11.5-32.1 15.8-47 16.9-56.6 60-165.1 184.5-194.2 218l35-1zm99.2-58.7l-35.8 30c2.7 4.6 5.3 11.3 4.5 19.8 0 0-25.6 18.5-34.1-24.9 0 0-30.6-42.6-32.3-56 0 0-30.7 15-46.7 16.7 0 0-10.8-6.9-13-13.1 0 0 7.9-24.3 6.8-37.5 0 0-24.6 12.5-34.7 21.9 0 0-8-1-13-6.2 0 0-2.3-55.6-8.2-65.1l-47.6-4.6c0 0-4.8-0.9-10.9-5.3 0 0-6.1-13.5-5-30.5l-1.3-34.9-35.9 13.2-10.6-1.2c0 0 1-40.1-24.6-73.6 0 0 25.9-25.9 44.4 15.2 3-3.2 6.4-7.1 10.1-11.5q3.1-3.6 6.2-7.7 3.2-4.1 6.8-8.6c3.2-3.9 6.6-7.9 10.3-12 0.7-0.7 1.4-1.5 2-2.3-0.2-2.4-0.6-5-0.8-7.6-0.3-3.1-0.6-6-0.8-8.4-0.4-4.9-0.8-8.6-1.4-11.6-1.5-5.6-2.9-9-4.3-10.7-2.8-3.4-5.1-0.1-7 5.8-1 3-2 6.7-2.9 10.8-0.9 4-1.6 8.5-2.2 12.5-1.1 8-1.7 13.5-1.7 13.5-2.7 2.5-5.1 3.5-7.1 3.5-1.5 0-2.9-0.6-4-1.4-43.1-31.4-74-29-74-29-6.8 28.2 3.5 59.2 3.5 59.2 4.2 7.6 5.8 12.8 5.8 16.3 0 2.2-0.6 3.7-1.5 4.7-0.4 0.6-1 1-1.6 1.3-6.8 5.8-22.1 21.9-22.1 21.9 11.8 11.1 77.5 37.1 77.5 37.1l6.4 21.4c-9.6 14.3-14.4 39.4-14.4 39.4 8.9 2 46.7 1.9 46.7 1.9 1 0.5 1.9 1.2 2.6 1.9l0.6-0.1q0.7 1.2 1.2 2.5c1.7 2.9 2.4 6.4 2.6 9.7 0.8 6.9-0.3 12.4-0.3 12.4-39.2 31.1 43.1 12.1 43.1 12.1l9.4 22.4c15.7 31.2 38.5 54 38.5 54 15.2 1 64.4-8.7 64.4-8.7 0 0 39.3 91.3 106 66.6 0 0 17.2-4-11.5-39.7 0 0-4.4-14.3 12.8-12.7 0 0 25.5-4.5 40.6-10.7 0 0-17-10.8-41.5-12.1zm189.3-202.7q-2.4-0.6-4.9-1.3c-3.6-1.1-7.3-2.1-11-3.1q-5.5-1.4-11-2.4c-3.2-0.5-6.3-0.9-9.5-1.2l-219 177.4c5 8.8 14.9 27 21.1 43.6zm-271.1 126.6c0.9-1 29.5-35.6 60.4-69.9 31.3-34.9 63.3-69.7 63.3-69.7l-25.6-39.2c0 0 15.1-5.9 21.6-15.9l34.7 50.7c0 0-39.5 36-78.7 71.9-38.7 35.4-74.6 71-75.7 72.1zm-142.5-143.3l-3-16.8 70.1-80.4c1 4.3 3.3 8.4 7.2 11.7zm-78.3 224.4c3.5 7 5.7 15.7 3.6 24.7-1.1 4.6-3.3 8.7-6.3 12.2-3 3.5-7.1 6.4-12 7.8-2.4 0.7-5.1 1-7.5 0.9-2.5-0.1-4.8-0.6-7-1.3-4.3-1.5-7.8-3.7-11-6.3-6.4-5.2-10.6-11.8-13.8-18.2q-1.2-2.5-2.2-4.9-0.2 0.3-0.4 0.6c-1.4 2.5-2.5 4.9-3.2 7.3-0.6 2.3-0.9 4.7-1 7.5-0.1 2.8 0 5.9 0.2 9.1l0.5 9.7c0.3 5.6 0.7 11.2 1.3 16.8q4.5-1.4 9.3-1.8c7.8-0.7 16 0.6 23.2 4.1 7.4 3.6 13.3 9.4 17.3 16.2 4 6.7 6.1 14.7 5.5 22.7-0.3 3.9-1.3 8.1-3.3 11.9-1.9 3.7-5 7.5-9.6 9.6-2.3 1-4.8 1.5-7.2 1.5-2.4-0.1-4.6-0.5-6.5-1.2-4-1.3-7.2-3.3-10.2-5.3-6.1-4-11.1-9.2-15.5-14.9-4.3-5.7-8-11.9-10.9-18.4-2.1 2.3-3.9 4.8-5.3 7.6-2.5 4.8-4.1 10.2-4.9 15.7-0.7 5.5-0.6 11.3 0.2 17.1 0.8 5.8 2.2 11.7 4 17.6 0.9 2.9 1.9 6 2.9 8.6 1 2.6 2.1 4.9 3.3 6.7 1.3 1.8 2.4 2.8 3.7 3.6 1.3 0.8 2.5 1 3 0.9 0.3 0 0.3-0.1 0.8-0.3 0.5-0.2 1.2-0.6 2.2-1.3 2-1.3 4.8-3.7 9.2-6l0.5-0.3c5.8-3.1 13-0.8 16.1 5 3.1 5.8 0.9 13-4.9 16.1q-0.5 0.3-1.1 0.5c-1.5 0.6-3.9 2.4-7.4 4.5-1.8 1.1-4 2.3-6.6 3.2-2.6 0.9-5.8 1.5-8.8 1.5-6.1-0.1-11.3-2.3-15.5-5.2-4.1-2.8-7.5-6.8-9.7-10.6-2.3-3.8-3.8-7.6-5-11.1-1.1-3.6-2-6.8-2.9-10.2-1.7-6.8-3.1-13.8-3.7-21.1-0.6-7.3-0.4-14.7 1-22.2 1.4-7.5 3.9-14.8 7.8-21.5 3.7-6.2 8.6-11.9 14.8-16.3-0.2-0.7-0.5-1.4-0.6-2.1-1.7-6.8-2.8-13.6-3.5-20.3q-0.5-5.1-0.7-10.1c-0.2-3.3-0.4-6.8-0.3-10.5 0.2-3.8 0.7-7.9 1.9-12 1.2-3.9 2.9-7.5 4.7-10.7 2.5-4.4 5.2-8.5 8.3-12.5-3.2-11.2-5.3-22.8-6.1-34.5-1-13.8 0.1-27.9 4-41.3 0.9-3.2 4.3-5.1 7.5-4.1 3.1 0.9 4.9 4 4.2 7.2-2.8 12-3.3 24.6-2 37 0.8 7.8 2.3 15.6 4.3 23.3q0.2-0.2 0.4-0.4 2.2-1.7 4.6-3.3 1.2-0.8 2.5-1.6c0.8-0.5 1.6-1 2.7-1.5 2-1 4.7-2.1 8.3-2.2 3.7-0.1 6.8 1.2 8.7 2.2 1.1 0.6 1.9 1.1 2.7 1.6 0.8 0.5 1.6 1 2.4 1.5q2.4 1.7 4.6 3.5c5.9 5 10.8 10.8 14.4 18zm-55.9 82.4q0.5 1.8 1 3.5c1.8 5.8 4.6 11.3 8.1 16.2 3.5 4.9 7.7 9.2 12.7 12.4 2.4 1.6 5 3.1 7.3 3.7 2.4 0.7 4.2 0.6 5.5-0.2 1.4-0.7 2.7-2.2 3.7-4.3 1-2.2 1.3-4.6 1.4-7.2 0-5.1-1.8-10.4-4.7-14.7-3-4.4-7.1-7.9-11.7-9.8-4.7-2-10-2.7-15.2-1.9-2.8 0.4-5.5 1.2-8.1 2.3zm40.9-74.9c-2.4-4.6-6-9.1-10.2-12.5q-1.6-1.3-3.3-2.5-0.8-0.6-1.7-1.1c-0.6-0.3-1.2-0.7-1.6-0.9-0.4-0.2-0.6-0.3-0.7-0.3-0.2 0-0.5 0.1-1 0.4-0.5 0.2-1 0.5-1.6 0.9-0.6 0.4-1.2 0.7-1.8 1.1-1.1 0.8-2.2 1.6-3.3 2.5-1.9 1.5-3.7 3.2-5.4 5.1 1.6 4.4 3.4 8.7 5.4 12.6 2.7 5.3 6 9.8 9.9 12.9 2 1.5 4.1 2.7 6.1 3.3 2 0.6 3.5 0.6 4.9 0.2 2.8-0.9 6-4.5 6.7-8.3 0.8-3.8 0-8.8-2.4-13.4z"/></svg>