<svg version="1.2" xmlns="http://www.w3.org/2000/svg" viewBox="0 0 450 759" width="450" height="759"><style>.a{fill:#1565c0}.b{fill:#1e88e5}.c{fill:#fff}.d{fill:#1975c8}.e{fill:#1258aa}.f{fill:#d0d5dd}</style><path class="a" d="m76.2 140.2h296.1v31.5h-296.1z"/><path class="b" d="m74.1 0.2h300.8c7.1 0 12.8 5.8 12.8 12.8v116.4c0 7.1-5.7 12.8-12.8 12.8h-300.8c-7 0-12.8-5.7-12.8-12.8v-116.4c0-7 5.8-12.8 12.8-12.8z"/><path class="a" d="m77.5 15.7h18v111h-18z"/><path class="a" d="m112 15.7h18v111h-18z"/><path class="a" d="m146.5 15.7h18v111h-18z"/><path class="a" d="m181 15.7h18v111h-18z"/><path class="a" d="m215.5 15.7h18v111h-18z"/><path class="a" d="m250 15.7h18v111h-18z"/><path class="a" d="m284.5 15.7h18v111h-18z"/><path class="a" d="m319.1 15.7h18v111h-18z"/><path class="a" d="m353.6 15.7h18v111h-18z"/><path class="b" d="m446.5 282.7l0.1 0.1 0.1 0.1 0.1 0.2h0.1l0.1 0.2v0.1l0.2 0.2 0.1 0.2v0.1l0.2 0.2 0.1 0.2 0.1 0.3h0.1l0.1 0.2v0.1l0.1 0.2 0.1 0.3 0.1 0.2v0.1l0.1 0.2 0.1 0.3 0.1 0.1v0.2l0.1 0.2 0.1 0.3v0.2l0.1 0.2v0.1 0.1l0.1 0.2v0.1 0.2 0.1 0.2l0.1 0.1v0.2 0.3 0.2 0.1 0.3 0.2 0.1 437.7c0 5.5-3.9 10.1-9 11.2-11.7 6.6-34 11.3-63.8 14.1-39.2 3.6-92.8 5.8-151.7 5.8-58.8 0-112.5-2.2-151.6-5.8-45.1-4.2-72.9-12.9-72.9-25.3v-437.7-0.3-0.3-0.1-0.2l0.1-0.2v-0.1-0.2-0.1-0.1-0.1-0.1l0.1-0.2v-0.1-0.1-0.1-0.1l0.1-0.2v-0.1l0.1-0.2v-0.2-0.1h0.1v-0.2-0.1l0.1-0.2v-0.1l0.1-0.1v-0.1-0.1l0.1-0.1v-0.1l0.1-0.2v-0.1l0.1-0.1v-0.1l0.1-0.1v-0.1h0.1v-0.2l0.1-0.2 0.1-0.1 0.1-0.1v-0.1l0.1-0.1v-0.1l0.1-0.1v-0.1l0.1-0.1q0.2-0.4 0.5-0.8l0.1-0.1 0.1-0.1 0.1-0.1q0.2-0.3 0.5-0.6l73.7-116.8h295.5l73.6 116.8q0.3 0.3 0.6 0.6z"/><path class="a" d="m0 383.5h449v252h-449z"/><path fill-rule="evenodd" class="c" d="m61.7 516.3v19.9h-16.5v-53.4h27.4q8.9 0 13.4 4.2 4.4 4.3 4.5 12.2 0 8-4.9 12.6-4.9 4.5-14.8 4.5zm10.7-12.4q1.9-1.7 1.9-4.3 0-2.5-1.7-4.2-1.6-1.8-6.2-1.8h-4.7v11.9h4q4.8 0 6.7-1.6z"/><path fill-rule="evenodd" class="c" d="m140.4 510.5q-2.1 1.3-5.8 2.1 2.9 1 4.3 2 0.9 0.6 2.6 2.8 1.8 2.1 2.3 3.3l8 15.5h-18.6l-8.8-16.4q-1.7-3.1-3-4.1-1.8-1.2-4.1-1.2h-1.4v21.7h-16.6v-53.4h27.5q7.6 0 11.7 1.3 4 1.3 6.5 4.9 2.5 3.5 2.5 8.6 0 4.4-1.9 7.7-1.9 3.2-5.2 5.2zm-17.6-6.1q1.1 0 4.4-0.7 1.6-0.4 2.7-1.7 1-1.3 1-3.1 0-2.6-1.6-4-1.7-1.4-6.2-1.3h-7.2v10.8z"/><path fill-rule="evenodd" class="c" d="m205.9 524.4q-3.2 6-9.1 9.3-6 3.4-14.9 3.4-9 0-14.9-2.9-5.9-2.9-9.6-9.1-3.7-6.2-3.7-15.6 0-13.1 7.3-20.3 7.3-7.3 20.3-7.3 13.3 0 20.5 7.1 7.2 7.2 7.2 20.1 0 9.3-3.1 15.3zm-32.7-3.2q3 3.5 8.2 3.5 5.3 0 8.2-3.4 2.9-3.5 2.9-12.5 0-7.5-3-11-3-3.4-8.2-3.4-5 0-8.1 3.5-3 3.5-3 11.7 0 8.1 3 11.6z"/><path class="c" d="m245.6 496v40.2h-16.5v-40.2h-16.9v-13.2h50.2v13.2z"/><path class="c" d="m286.3 494.2v8.5h25.7v10.8h-25.7v10.6h28.5v12.1h-45v-53.4h44.2v11.4z"/><path class="c" d="m324.3 536.2v-53.4h16.6v53.4z"/><path class="c" d="m388.3 482.8h15.6v53.4h-15.6l-20-29.4v29.4h-15.5v-53.4h15.4l20.1 29.5z"/><path class="d" d="m224.2 758.7v-593.5h148.1l73.6 116.8q0.3 0.3 0.6 0.6v0.1l0.1 0.1 0.1 0.1 0.1 0.2h0.1l0.1 0.2v0.1l0.2 0.2 0.1 0.2v0.1l0.2 0.2 0.1 0.2 0.1 0.3h0.1l0.1 0.2v0.1l0.1 0.2 0.1 0.3 0.1 0.2v0.1l0.1 0.2 0.1 0.3 0.1 0.1v0.2l0.1 0.2 0.1 0.3v0.2l0.1 0.2v0.1 0.1l0.1 0.2v0.1 0.2 0.1 0.2l0.1 0.1v0.2 0.3 0.2 0.1 0.3 0.2 0.1 437.7c0 5.5-3.9 10.1-9 11.2-11.7 6.6-34 11.3-63.8 14.1-39.2 3.6-92.8 5.8-151.7 5.8z"/><path class="e" d="m224.2 383.5h224.8v252h-224.8z"/><path class="f" d="m245.6 496v40.2h-16.5v-40.2h-4.9v-13.2h38.2v13.2z"/><path class="f" d="m286.3 494.2v8.5h25.7v10.8h-25.7v10.6h28.5v12.1h-45v-53.4h44.2v11.4z"/><path class="f" d="m324.3 536.2v-53.4h16.6v53.4z"/><path class="f" d="m388.3 482.8h15.6v53.4h-15.6l-20-29.4v29.4h-15.5v-53.4h15.4l20.1 29.5z"/></svg>